<?xml version="1.0" encoding="UTF-8" standalone="no"?>
<!-- Uploaded to: SVG Repo, www.svgrepo.com, Generator: SVG Repo Mixer Tools -->

<svg
   fill="#000000"
   width="99.999878"
   height="175.22272"
   viewBox="0 0 1.7499979 3.0663975"
   role="img"
   focusable="false"
   aria-hidden="true"
   version="1.1"
   id="svg4"
   sodipodi:docname="kaggle.svg"
   inkscape:version="1.2.2 (732a01da63, 2022-12-09)"
   xmlns:inkscape="http://www.inkscape.org/namespaces/inkscape"
   xmlns:sodipodi="http://sodipodi.sourceforge.net/DTD/sodipodi-0.dtd"
   xmlns="http://www.w3.org/2000/svg"
   xmlns:svg="http://www.w3.org/2000/svg">
  <defs
     id="defs8" />
  <sodipodi:namedview
     id="namedview6"
     pagecolor="#ffffff"
     bordercolor="#000000"
     borderopacity="0.25"
     inkscape:showpageshadow="2"
     inkscape:pageopacity="0.0"
     inkscape:pagecheckerboard="0"
     inkscape:deskcolor="#d1d1d1"
     showgrid="false"
     inkscape:zoom="0.82125"
     inkscape:cx="194.82496"
     inkscape:cy="245.96651"
     inkscape:window-width="1600"
     inkscape:window-height="837"
     inkscape:window-x="-8"
     inkscape:window-y="32"
     inkscape:window-maximized="1"
     inkscape:current-layer="svg4" />
  <path
     d="m 1.7470799,3.0483823 c -0.00281,0.011754 -0.014949,0.018015 -0.035902,0.018015 H 1.3101183 c -0.023892,0 -0.044846,-0.010477 -0.062861,-0.031686 L 0.5856819,2.1928574 0.40067593,2.3684087 v 0.6530149 c 0,0.030025 -0.0149487,0.044974 -0.0448461,0.044974 H 0.04522936 C 0.01507645,3.0663974 0,3.0514487 0,3.0214236 V 0.0451016 C 0,0.01533199 0.01507645,0 0.04522936,0 h 0.3106005 c 0.0298974,0 0.0448461,0.01533199 0.0448461,0.0451016 V 1.8776573 L 1.1932119,1.0763055 c 0.021081,-0.021081 0.042163,-0.031431 0.063244,-0.031431 h 0.4138359 c 0.018398,0 0.030153,0.00767 0.036413,0.022998 0.00588,0.019037 0.00434,0.03258 -0.0046,0.040247 l -0.8375097,0.810551 0.8734121,1.0869101 c 0.012138,0.013288 0.014949,0.026575 0.00894,0.04574"
     id="path2"
     style="fill:#ff2a2a;stroke-width:0.255533" />
</svg>
